<svg xmlns="http://www.w3.org/2000/svg" viewBox="0 0 64 64">
  <g stroke="#E8B45A" fill="none" stroke-linecap="round">
    <path d="M12 32 A16 16 0 1 1 40 43" stroke-width="2.6"/>
    <path d="M12 32 A23 23 0 1 1 49 48" stroke-width="2"/>
    <path d="M12 32 A10 10 0 1 1 30 38" stroke-width="3"/>
    <path d="M12 32 C 23 30, 32 30, 45 25" stroke-width="1.8"/>
    <path d="M12 32 C 23 34, 34 36, 50 35" stroke-width="1.4"/>
  </g>
  <g fill="#E8B45A">
    <circle cx="40" cy="43" r="2.8"/>
    <circle cx="49" cy="48" r="2.1"/>
    <circle cx="30" cy="38" r="3.2"/>
    <circle cx="45" cy="25" r="2.5"/>
    <circle cx="50" cy="35" r="1.9"/>
    <circle cx="53" cy="42" r="1.5"/>
  </g>
</svg>
